<svg width="100" height="32" viewBox="0 0 100 32" fill="none" xmlns="http://www.w3.org/2000/svg">
<path fill-rule="evenodd" clip-rule="evenodd" d="M26.9617 25.2735C26.7433 26.8979 25.6497 28.3042 24.1192 28.929C23.3696 29.2411 22.5569 29.335 21.7452 29.2411C20.9644 29.1471 20.1829 28.8971 19.3712 28.429C18.2464 27.8036 17.122 26.8359 15.8097 25.3984C17.8713 22.8683 19.1209 20.5561 19.5896 18.4947C19.8084 17.526 19.8399 16.6516 19.7457 15.8389C19.6212 15.058 19.3397 14.3393 18.9024 13.7145C17.9334 12.3083 16.3087 11.4965 14.4974 11.4965C12.686 11.4965 11.0613 12.3401 10.0929 13.7145C9.65567 14.3393 9.37418 15.058 9.24933 15.8389C9.12448 16.6516 9.1554 17.5572 9.40537 18.4947C9.87381 20.5561 11.1546 22.8992 13.185 25.4296C11.9042 26.8667 10.7483 27.8354 9.62351 28.4603C8.81116 28.929 8.03065 29.1789 7.24979 29.2723C6.40656 29.3662 5.59388 29.2411 4.87546 28.9602C3.345 28.3354 2.25144 26.9291 2.03299 25.3047C1.93936 24.5239 2.00147 23.743 2.31418 22.8683C2.4075 22.5556 2.56415 22.2435 2.72019 21.8687C2.93897 21.3687 3.18833 20.8372 3.43863 20.3064L3.47015 20.2442C5.62539 15.5892 7.93701 10.8408 10.3426 6.21758L10.4362 6.02971C10.6865 5.5616 10.9365 5.06163 11.1861 4.59288C11.4361 4.09294 11.717 3.62416 12.0609 3.21782C12.7169 2.46883 13.5914 2.06218 14.5601 2.06218C15.5288 2.06218 16.4033 2.46883 17.0593 3.21782C17.4032 3.62511 17.6841 4.09386 17.9341 4.59288C18.1843 5.06163 18.4343 5.5616 18.6837 6.02971L18.7776 6.21758C21.1465 10.86 23.4274 15.5468 25.6191 20.2755L25.6192 20.3067C25.8694 20.8073 26.0879 21.369 26.3379 21.8696C26.4939 22.2438 26.6503 22.5559 26.7439 22.8686C26.9933 23.68 27.0869 24.4615 26.9617 25.2735L26.9617 25.2735ZM14.4976 23.8052C12.8105 21.6808 11.717 19.6816 11.3425 17.9951C11.1864 17.2764 11.1549 16.6515 11.2489 16.0892C11.311 15.5892 11.4988 15.1517 11.7488 14.7768C12.3424 13.9339 13.342 13.4025 14.498 13.4025C15.6542 13.4025 16.6851 13.9024 17.2474 14.7768C17.4974 15.1517 17.6847 15.5895 17.7477 16.0892C17.841 16.6519 17.8098 17.3075 17.6538 17.9951C17.2777 19.6504 16.1842 21.6499 14.4976 23.8052ZM28.5865 22.1808C28.4304 21.806 28.274 21.3999 28.118 21.056C27.8677 20.4939 27.6177 19.9624 27.3996 19.4628L27.3684 19.4316C25.2125 14.7453 22.9012 9.99724 20.4641 5.31164L20.3705 5.12377C20.1142 4.63769 19.8644 4.14818 19.6212 3.65542C19.3084 3.09271 18.9964 2.49975 18.4964 1.93707C17.4968 0.687469 16.0597 -6.10352e-05 14.5292 -6.10352e-05C12.9669 -6.10352e-05 11.5612 0.687469 10.5307 1.87433C10.062 2.4364 9.71808 3.02997 9.40597 3.59268C9.1622 4.08514 8.91238 4.57464 8.65667 5.06103L8.56274 5.2489C6.15719 9.93457 3.81436 14.6829 1.65878 19.3689L1.62726 19.431C1.40878 19.9316 1.15851 20.4624 0.908544 21.0242C0.752474 21.3681 0.596444 21.7429 0.440404 22.1489C0.0340641 23.3046 -0.0910859 24.3981 0.0655841 25.5232C0.409214 27.8663 1.97085 29.8337 4.12674 30.7091C4.93912 31.053 5.78268 31.2091 6.65714 31.2091C6.90714 31.2091 7.21921 31.1779 7.46952 31.1464C8.50062 31.0215 9.56266 30.6782 10.5938 30.0847C11.8746 29.3659 13.093 28.3354 14.4674 26.8359C15.8418 28.3354 17.0914 29.3659 18.341 30.0847C19.3724 30.6782 20.4341 31.0215 21.465 31.1464C21.715 31.1782 22.0277 31.2091 22.2776 31.2091C23.1524 31.2091 24.0269 31.053 24.8077 30.7091C26.9948 29.8337 28.5253 27.8351 28.8692 25.5232C29.1173 24.43 28.9924 23.337 28.5864 22.1808L28.5865 22.1808ZM59.7322 11.1838C60.6379 11.1838 61.1067 11.3405 61.1067 11.3405V14.1205C61.1067 14.1205 58.6074 13.277 57.0458 15.058V23.274H54.0464V11.4965H56.5771C56.827 11.4965 57.0139 11.7153 57.0139 11.9341V12.434C57.577 11.7777 58.7953 11.1838 59.7322 11.1838ZM67.8542 20.7124C66.6986 20.7124 65.7929 20.1194 65.3242 19.4316V15.2453C65.7929 14.6205 66.7925 13.9645 67.8542 13.9645C69.8541 13.9645 71.3845 15.2141 71.3845 17.3384C71.3845 19.4628 69.8541 20.7124 67.8542 20.7124ZM68.3542 11.1838C66.2929 11.1838 65.3242 12.434 65.3242 12.434V5.84249H62.3253V23.2431H64.8554C65.1054 23.2431 65.2929 23.0243 65.2929 22.8056V22.2747C65.2929 22.2747 66.2617 23.5555 68.323 23.5555C71.7285 23.5555 74.3837 20.9321 74.3837 17.3706C74.4149 13.8088 71.7597 11.1838 68.3542 11.1838L68.3542 11.1838ZM86.3802 16.2767V23.2743H83.3808V16.62C83.3808 14.6835 82.756 13.9021 81.0701 13.9021C80.1645 13.9021 79.227 14.3708 78.6324 15.0583V23.2434H75.6342V11.4968H78.0076C78.2576 11.4968 78.4452 11.7156 78.4452 11.9344V12.4343C79.3199 11.5281 80.4756 11.1841 81.6313 11.1841C82.9436 11.1841 84.0371 11.5596 84.9119 12.3092C85.9736 13.184 86.3802 14.3084 86.3802 16.2767ZM93.4714 20.7124C92.3152 20.7124 91.4095 20.1194 90.9407 19.4316V15.2453C91.4095 14.6205 92.4091 13.9645 93.4714 13.9645C95.4707 13.9645 97.0014 15.2141 97.0014 17.3384C97.0014 19.4628 95.471 20.7124 93.4714 20.7124ZM93.9714 11.1838C91.9094 11.1838 90.9407 12.434 90.9407 12.434V5.84249H87.9419V23.2431H90.4726C90.7226 23.2431 90.9095 23.0243 90.9095 22.8056V22.2747C90.9095 22.2747 91.8783 23.5555 93.9396 23.5555C97.345 23.5555 100 20.9321 100 17.3706C100 13.8091 97.345 11.1838 93.9714 11.1838V11.1838ZM49.1731 11.4965H52.172V23.2431H49.1731V11.4965ZM44.3308 19.4628C43.8627 20.1503 42.9252 20.7439 41.8007 20.7439C39.8015 20.7439 38.2704 19.4943 38.2704 17.3697C38.2704 15.2453 39.8015 13.9957 41.8007 13.9957C42.8943 13.9957 43.8939 14.6205 44.3308 15.2765V19.4628ZM44.3308 11.9344V12.4343C44.3308 12.4343 43.3627 11.1841 41.3008 11.1841C37.8959 11.1841 35.2401 13.7772 35.2401 17.3697C35.2401 20.9312 37.8647 23.5552 41.3008 23.5552C43.3939 23.5552 44.3308 22.2744 44.3308 22.2744V22.8052C44.3308 23.0552 44.5187 23.2422 44.7683 23.2422H47.2984V11.4956H44.7683C44.5187 11.4965 44.3308 11.7156 44.3308 11.9344L44.3308 11.9344ZM52.7035 7.8417C52.7035 8.96646 51.7971 9.87213 50.6724 9.87213C49.5476 9.87213 48.642 8.96646 48.642 7.8417C48.642 6.71694 49.5167 5.81127 50.6724 5.81127C51.829 5.84249 52.7035 6.74846 52.7035 7.8417Z" fill="white"/>
</svg>
