<svg width="84" height="25" viewBox="0 0 84 25" fill="none" xmlns="http://www.w3.org/2000/svg">
<path fill-rule="evenodd" clip-rule="evenodd" d="M51.9522 19.5731C47.1654 23.1136 40.2029 25 34.1976 25C25.7845 25 18.2417 21.8948 12.4976 16.7291C12.0624 16.3228 12.4395 15.7714 12.9907 16.0906C19.17 19.6892 26.7999 21.8367 34.6908 21.8367C39.9998 21.8367 45.86 20.7339 51.256 18.4413C52.0683 18.1221 52.7355 18.9927 51.9522 19.5731L51.9522 19.5731Z" fill="white"/>
<path fill-rule="evenodd" clip-rule="evenodd" d="M53.9534 17.2813C53.3446 16.4977 49.8945 16.904 48.3579 17.1072C47.8941 17.1652 47.8071 16.7589 48.242 16.4687C50.9962 14.5245 55.49 15.1049 56.0118 15.7433C56.5337 16.3817 55.8668 20.9086 53.2866 23.056C52.8807 23.3752 52.5038 23.2011 52.6777 22.7658C53.2576 21.3149 54.5622 18.0938 53.9534 17.2813Z" fill="white"/>
<path fill-rule="evenodd" clip-rule="evenodd" d="M10.7818 14.4972C10.6078 14.6423 10.3757 14.6713 10.1726 14.5552C9.3312 13.8589 9.15711 13.5108 8.69289 12.8434C7.30027 14.2651 6.28479 14.7003 4.48598 14.7003C2.33902 14.7003 0.65625 13.3657 0.65625 10.7255C0.65625 8.63654 1.78777 7.2439 3.38348 6.54758C4.7761 5.93833 6.71998 5.82227 8.19966 5.6482V5.32905C8.19966 4.7198 8.25769 3.99446 7.88052 3.47221C7.56137 3.00801 6.98111 2.80491 6.45887 2.80491C5.47242 2.80491 4.60203 3.29814 4.39893 4.3426C4.34092 4.57472 4.19584 4.8068 3.96373 4.8068L1.49762 4.54572C1.29453 4.48768 1.06241 4.3426 1.12044 4.02347C1.7007 1.00611 4.39893 0.106689 6.83603 0.106689C8.0836 0.106689 9.70833 0.425809 10.6948 1.38324C11.9423 2.54376 11.8263 4.1105 11.8263 5.79327V9.76806C11.8263 10.9576 12.3195 11.4798 12.7837 12.1472C12.9578 12.3793 12.9868 12.6694 12.7837 12.8144C12.2325 13.2496 11.3041 14.062 10.7818 14.4972L10.7818 14.4972ZM8.22868 8.25938C8.22868 9.24583 8.2577 10.0872 7.76448 10.9866C7.35828 11.7119 6.71999 12.1471 5.99467 12.1471C5.0082 12.1471 4.42794 11.3928 4.42794 10.2903C4.42794 8.11433 6.37183 7.70811 8.22868 7.70811V8.25938ZM44.321 14.4972C44.147 14.6423 43.9149 14.6713 43.7118 14.5552C42.8704 13.8589 42.6963 13.5108 42.2321 12.8434C40.8395 14.2651 39.824 14.7003 38.0252 14.7003C35.8782 14.7003 34.1954 13.3657 34.1954 10.7255C34.1954 8.63654 35.327 7.2439 36.9227 6.54758C38.3153 5.93833 40.2592 5.82227 41.7389 5.6482V5.32905C41.7389 4.7198 41.7969 3.99446 41.4197 3.47221C41.1006 3.00801 40.5203 2.80491 39.9981 2.80491C39.0116 2.80491 38.1412 3.29814 37.9381 4.3426C37.8801 4.57472 37.735 4.8068 37.503 4.8068L35.0368 4.54572C34.8337 4.48768 34.6016 4.3426 34.6597 4.02347C35.2399 1.00611 37.9381 0.106689 40.3753 0.106689C41.6228 0.106689 43.2475 0.425809 44.234 1.38324C45.4816 2.54376 45.3655 4.1105 45.3655 5.79327V9.76806C45.3655 10.9576 45.8587 11.4798 46.3229 12.1472C46.497 12.3793 46.526 12.6694 46.3229 12.8144C45.7717 13.2496 44.8433 14.062 44.321 14.4972L44.321 14.4972ZM41.7389 8.25938C41.7389 9.24583 41.7679 10.0872 41.2747 10.9866C40.8685 11.7119 40.2302 12.1471 39.5049 12.1471C38.5184 12.1471 37.9381 11.3928 37.9381 10.2903C37.9381 8.11433 39.882 7.70811 41.7389 7.70811V8.25938ZM75.8293 14.5262H73.2762C73.0151 14.4972 72.812 14.2941 72.812 14.062V0.919059C72.841 0.686969 73.0441 0.483879 73.3052 0.483879H75.6843C75.9164 0.483879 76.0905 0.657949 76.1485 0.861019V2.86297H76.2065C76.9319 1.06411 77.9183 0.222739 79.6881 0.222739C80.8196 0.222739 81.9511 0.628929 82.6764 1.76043C83.3438 2.80492 83.3438 4.57473 83.3438 5.85131V14.12C83.3147 14.3522 83.1116 14.5262 82.8505 14.5262H80.2974C80.0653 14.4972 79.8622 14.3231 79.8332 14.12V6.98281C79.8332 5.53213 80.0072 3.4432 78.2374 3.4432C77.6282 3.4432 77.0479 3.84939 76.7578 4.48769C76.4096 5.30004 76.3516 6.08339 76.3516 6.98281V14.062C76.3226 14.3231 76.0905 14.5262 75.8293 14.5262L75.8293 14.5262ZM65.0655 2.92097C63.1796 2.92097 63.0636 5.50312 63.0636 7.09886C63.0636 8.69459 63.0345 12.1181 65.0364 12.1181C67.0093 12.1181 67.1254 9.36186 67.1254 7.67912C67.1254 6.57661 67.0674 5.24205 66.7482 4.19755C66.4581 3.26911 65.8778 2.92097 65.0655 2.92097ZM65.0655 0.222729C68.8662 0.222729 70.9261 3.47224 70.9261 7.62111C70.9261 11.6249 68.6631 14.8164 65.0655 14.8164C61.3518 14.8164 59.3209 11.5669 59.3209 7.50505C59.2918 3.4142 61.3518 0.222729 65.0655 0.222729ZM17.774 14.5262H15.2208C14.9888 14.4972 14.7857 14.3231 14.7566 14.091V0.977099C14.7566 0.715989 14.9888 0.512869 15.2499 0.512869H17.6289C17.8901 0.512869 18.0641 0.715999 18.0932 0.948079V2.65984H18.1512C18.7605 1.00609 19.95 0.222739 21.5167 0.222739C23.1124 0.222739 24.1279 1.0061 24.8242 2.65984C25.4335 1.00609 26.8551 0.222739 28.3638 0.222739C29.4373 0.222739 30.5978 0.657949 31.3232 1.67342C32.1355 2.7759 31.9614 4.3716 31.9614 5.79329V14.091C31.9614 14.3522 31.7293 14.5552 31.4682 14.5552H28.9441C28.683 14.5262 28.4799 14.3232 28.4799 14.091V7.12789C28.4799 6.57662 28.5379 5.18401 28.4218 4.66176C28.2187 3.79137 27.6675 3.53026 26.9131 3.53026C26.3039 3.53026 25.6366 3.93642 25.3755 4.60375C25.1143 5.27105 25.1433 6.37356 25.1433 7.12789V14.0911C25.1433 14.3522 24.9112 14.5553 24.6501 14.5553H22.0969C21.8358 14.5262 21.6327 14.3232 21.6327 14.0911V7.12789C21.6327 5.67724 21.8648 3.50124 20.066 3.50124C18.2382 3.50124 18.2962 5.5902 18.2962 7.12789V14.0911C18.2672 14.3232 18.0641 14.5262 17.774 14.5262L17.774 14.5262ZM48.4409 2.83393V0.948069C48.4409 0.657939 48.644 0.483869 48.9051 0.483869H57.3189C57.5801 0.483869 57.8122 0.686959 57.8122 0.948069V2.54377C57.8122 2.80491 57.5801 3.15305 57.1739 3.73331L52.8219 9.94214C54.4467 9.91312 56.1584 10.1452 57.6091 10.9576C57.9282 11.1317 58.0153 11.4218 58.0443 11.6829V13.6848C58.0443 13.975 57.7542 14.2941 57.435 14.12C54.8528 12.7564 51.4003 12.6113 48.557 14.149C48.2669 14.2941 47.9477 14.004 47.9477 13.7139V11.799C47.9477 11.5088 47.9477 10.9866 48.2669 10.5224L53.3151 3.29812H48.9341C48.673 3.29812 48.4409 3.09503 48.4409 2.83392L48.4409 2.83393Z" fill="white"/>
</svg>
