<svg width="38" height="42" viewBox="0 0 38 42" fill="none" xmlns="http://www.w3.org/2000/svg">
<path d="M20.3176 2.19497C20.7959 1.91883 20.9598 1.30724 20.6837 0.828943C20.4075 0.350651 19.7959 0.186776 19.3176 0.462918L20.3176 2.19497ZM1.74881 11.761L1.24881 10.895C0.920788 11.0843 0.727917 11.4428 0.750612 11.8209L1.74881 11.761ZM1.86871 30.4488C1.9018 31.0001 2.37554 31.4202 2.92683 31.3871C3.47812 31.354 3.89821 30.8802 3.86512 30.329L1.86871 30.4488ZM21.4363 20.8238C21.9146 20.5476 22.0785 19.9361 21.8023 19.4578C21.5262 18.9795 20.9146 18.8156 20.4363 19.0917L21.4363 20.8238ZM2.36746 29.5238C1.88917 29.7999 1.72529 30.4115 2.00143 30.8898C2.27758 31.3681 2.88917 31.532 3.36746 31.2558L2.36746 29.5238ZM19.9375 20.0167C19.9706 20.568 20.4444 20.9881 20.9957 20.955C21.547 20.9219 21.967 20.4482 21.9339 19.8969L19.9375 20.0167ZM20.8158 1.26903C20.7828 0.717735 20.309 0.297649 19.7577 0.33074C19.2064 0.36383 18.7863 0.837566 18.8194 1.38886L20.8158 1.26903ZM37.0089 31.1051C37.4872 30.8289 37.6511 30.2174 37.3749 29.7391C37.0988 29.2608 36.4872 29.0969 36.0089 29.373L37.0089 31.1051ZM18.4401 40.6711L17.8891 41.5056C18.2052 41.7143 18.6121 41.7265 18.9401 41.5371L18.4401 40.6711ZM3.4179 29.5544C2.95701 29.2501 2.3367 29.377 2.0324 29.8379C1.7281 30.2988 1.85504 30.9191 2.31592 31.2234L3.4179 29.5544ZM35.9579 31.0736C36.4188 31.3779 37.0391 31.2509 37.3434 30.7901C37.6477 30.3292 37.5208 29.7089 37.0599 29.4046L35.9579 31.0736ZM21.4867 19.1223C21.0258 18.818 20.4055 18.9449 20.1012 19.4058C19.7969 19.8667 19.9239 20.487 20.3848 20.7913L21.4867 19.1223ZM35.5107 30.299C35.5438 30.8503 36.0175 31.2704 36.5688 31.2373C37.1201 31.2042 37.5402 30.7304 37.5071 30.1791L35.5107 30.299ZM35.3908 11.6112L36.389 11.5513C36.3701 11.2371 36.2045 10.9501 35.9418 10.7767L35.3908 11.6112ZM20.3686 0.494431C19.9077 0.190128 19.2874 0.317065 18.9831 0.777953C18.6788 1.23884 18.8058 1.85915 19.2666 2.16345L20.3686 0.494431ZM19.3176 0.462918L1.24881 10.895L2.24881 12.627L20.3176 2.19497L19.3176 0.462918ZM0.750612 11.8209L1.86871 30.4488L3.86512 30.329L2.74702 11.7011L0.750612 11.8209ZM20.4363 19.0917L2.36746 29.5238L3.36746 31.2558L21.4363 20.8238L20.4363 19.0917ZM21.9339 19.8969L20.8158 1.26903L18.8194 1.38886L19.9375 20.0167L21.9339 19.8969ZM36.0089 29.373L17.9401 39.8051L18.9401 41.5371L37.0089 31.1051L36.0089 29.373ZM18.9911 39.8366L3.4179 29.5544L2.31592 31.2234L17.8891 41.5056L18.9911 39.8366ZM37.0599 29.4046L21.4867 19.1223L20.3848 20.7913L35.9579 31.0736L37.0599 29.4046ZM37.5071 30.1791L36.389 11.5513L34.3926 11.6711L35.5107 30.299L37.5071 30.1791ZM35.9418 10.7767L20.3686 0.494431L19.2666 2.16345L34.8398 12.4457L35.9418 10.7767Z" fill="white"/>
</svg>
