<svg width="30" height="30" viewBox="0 0 30 30" fill="none" xmlns="http://www.w3.org/2000/svg">
<mask id="mask0_0_111" style="mask-type:alpha" maskUnits="userSpaceOnUse" x="0" y="0" width="30" height="30">
<path fill-rule="evenodd" clip-rule="evenodd" d="M4 30C1.79086 30 0 28.2091 0 26V4C0 1.79086 1.79086 0 4 0H26C28.2091 0 30 1.79086 30 4V26C30 28.2091 28.2091 30 26 30H4Z" fill="white"/>
</mask>
<g mask="url(#mask0_0_111)">
<path fill-rule="evenodd" clip-rule="evenodd" d="M28.2395 4.83609C27.855 4.83609 27.5253 4.50645 27.5253 4.12187C27.5253 3.73729 27.855 3.40765 28.2395 3.40765C28.6241 3.40765 28.9538 3.73729 28.9538 4.12187C28.9538 4.56139 28.6241 4.83609 28.2395 4.83609ZM27.2506 16.1538V17.7471H25.6574V16.1538H27.2506ZM20.9325 18.2415C20.1084 18.9557 18.2404 20.8787 18.1305 23.9553H11.8673C11.7574 20.8237 9.88947 18.9008 9.06536 18.2415L14.4495 7.74793V13.5167C14.4495 13.8463 14.6693 14.0661 14.9989 14.0661C15.3286 14.0661 15.5483 13.8463 15.5483 13.5167V7.74793L20.9325 18.2415ZM19.2293 25.0541C19.2843 25.0541 19.3392 25.1091 19.3392 25.164V26.5375C19.3392 26.5924 19.2843 26.6474 19.2293 26.6474H10.5488C10.4938 26.6474 10.4389 26.5924 10.4389 26.5375V25.164C10.4389 25.1091 10.4938 25.0541 10.5488 25.0541H11.3179H18.625H19.2293ZM14.2298 3.3527H15.823V4.94597H14.2298V3.3527ZM4.28557 16.1538V17.7471H2.74724V16.1538H4.28557ZM1.75831 4.83609C1.37373 4.83609 1.04409 4.50645 1.04409 4.12187C1.04409 3.73729 1.37373 3.40765 1.75831 3.40765C2.14289 3.40765 2.47253 3.73729 2.47253 4.12187C2.47253 4.56139 2.14289 4.83609 1.75831 4.83609ZM28.2395 2.30884C27.4154 2.30884 26.7562 2.85824 26.5364 3.57247H16.8669V2.80331C16.8669 2.47367 16.6471 2.25391 16.3175 2.25391H13.6254C13.2958 2.25391 13.076 2.47367 13.076 2.80331V3.57247H3.51642C3.29666 2.85825 2.58243 2.30884 1.81327 2.30884C0.824344 2.30884 0.000244141 3.13294 0.000244141 4.12187C0.000244141 5.1108 0.824344 5.9349 1.81327 5.9349C2.63737 5.9349 3.29666 5.3855 3.51642 4.67127H9.99938C5.98874 6.4843 3.24172 10.44 3.02196 15.055H2.19785C1.86821 15.055 1.64845 15.2747 1.64845 15.6044V18.2965C1.64845 18.6261 1.86821 18.8459 2.19785 18.8459H4.88993C5.21957 18.8459 5.43933 18.6261 5.43933 18.2965V15.6044C5.43933 15.2747 5.21957 15.055 4.88993 15.055H4.12077C4.39547 9.94554 8.13141 5.71514 13.131 4.83609V5.44043C13.131 5.77007 13.3507 5.98983 13.6804 5.98983H14.1199L7.91165 18.1316C7.80177 18.3514 7.85671 18.681 8.07647 18.8459C8.07647 18.8459 10.6037 20.6039 10.7685 23.9553H10.5488C9.8895 23.9553 9.34009 24.5047 9.34009 25.164V26.5375C9.34009 27.1968 9.88949 27.7462 10.5488 27.7462H19.2294C19.8886 27.7462 20.438 27.1968 20.438 26.5375V25.164C20.438 24.5047 19.8886 23.9553 19.2294 23.9553C19.3942 20.6039 21.8116 18.9008 21.9214 18.8459C22.1412 18.681 22.2511 18.4063 22.0863 18.1316L15.878 6.04477H16.3175C16.6472 6.04477 16.8669 5.82501 16.8669 5.49537V4.89103C21.8665 5.77008 25.6024 10.0005 25.8771 15.1099H25.108C24.7783 15.1099 24.5586 15.3297 24.5586 15.6593V18.2965C24.5586 18.6261 24.7783 18.8459 25.108 18.8459H27.8C28.1297 18.8459 28.3494 18.6261 28.3494 18.2965V15.6044C28.3494 15.2747 28.1297 15.055 27.8 15.055H26.9759C26.7562 10.4949 24.0092 6.53923 19.9985 4.67126H26.4815C26.7012 5.38548 27.4155 5.93489 28.1846 5.93489C29.1736 5.93489 29.9977 5.11079 29.9977 4.12186C30.0526 3.13294 29.2285 2.30883 28.2396 2.30883L28.2395 2.30884Z" fill="white"/>
</g>
</svg>
