<svg width="26" height="26" viewBox="0 0 26 26" fill="none" xmlns="http://www.w3.org/2000/svg">
<path fill-rule="evenodd" clip-rule="evenodd" d="M22.6907 20.5147C22.247 21.6296 21.3881 22.4886 20.2674 22.938C18.5893 23.6035 14.6073 23.45 12.7528 23.45C10.8983 23.45 6.91066 23.5979 5.23822 22.938C4.12326 22.4943 3.26429 21.6353 2.81489 20.5147C2.14933 18.8365 2.30292 14.8545 2.30292 13.0001C2.30292 11.1456 2.15502 7.1579 2.81489 5.48546C3.2586 4.3705 4.11757 3.51153 5.23822 3.06213C6.91635 2.39657 10.8983 2.55016 12.7528 2.55016C14.6073 2.55016 18.595 2.40226 20.2674 3.06213C21.3824 3.50584 22.2413 4.36481 22.6907 5.48546C23.3563 7.16359 23.2027 11.1456 23.2027 13.0001C23.2027 14.8545 23.3563 18.8422 22.6907 20.5147ZM25.4099 7.74383C25.3132 5.70164 24.8467 3.89267 23.3506 2.40227C21.8602 0.911868 20.0512 0.445398 18.0091 0.343008C15.9043 0.223548 9.59567 0.223548 7.4909 0.343008C5.45439 0.439718 3.64543 0.906178 2.14934 2.39658C0.653248 3.88698 0.192468 5.69595 0.0900783 7.73814C-0.0293817 9.84291 -0.0293817 16.1515 0.0900783 18.2563C0.186788 20.2985 0.653248 22.1075 2.14934 23.5979C3.64543 25.0883 5.44871 25.5547 7.4909 25.6571C9.59567 25.7766 15.9043 25.7766 18.0091 25.6571C20.0513 25.5604 21.8602 25.0939 23.3506 23.5979C24.841 22.1074 25.3075 20.2985 25.4099 18.2563C25.5293 16.1515 25.5293 9.8486 25.4099 7.74383H25.4099ZM21.0809 6.19654C21.0809 7.04414 20.3982 7.72108 19.5563 7.72108C18.7087 7.72108 18.0318 7.03845 18.0318 6.19654C18.0318 5.35463 18.7144 4.67201 19.5563 4.67201C20.3982 4.67201 21.0809 5.35464 21.0809 6.19654ZM12.7528 17.2494C10.4148 17.2494 8.50346 15.3437 8.50346 13.0001C8.50346 10.6564 10.4091 8.7507 12.7528 8.7507C15.0965 8.7507 17.0022 10.6564 17.0022 13.0001C17.0022 15.3437 15.0908 17.2494 12.7528 17.2494ZM12.7528 6.4639C9.13489 6.4639 6.21666 9.38213 6.21666 13.0001C6.21666 16.618 9.13489 19.5362 12.7528 19.5362C16.3707 19.5362 19.289 16.618 19.289 13.0001C19.289 9.38213 16.3707 6.4639 12.7528 6.4639Z" fill="#D2D2D2"/>
</svg>
