<svg width="100" height="22" viewBox="0 0 100 22" fill="none" xmlns="http://www.w3.org/2000/svg">
<path fill-rule="evenodd" clip-rule="evenodd" d="M39.3883 7.2229V17.0665H41.589V4.27461H38.5431L34.6716 13.776L30.9145 4.27461H27.7446V17.0664H29.8127V7.22194H29.8837L33.8511 17.0665H35.4119L39.3173 7.22291L39.3883 7.2229ZM44.7687 3.99398C44.4138 3.99398 44.1043 4.1148 43.8499 4.35422C43.5946 4.59432 43.4651 4.89661 43.4651 5.25337C43.4651 5.60452 43.593 5.9013 43.846 6.13501C44.0973 6.36805 44.4078 6.48616 44.7688 6.48616C45.1298 6.48616 45.4414 6.36805 45.6957 6.1354C45.9517 5.9013 46.0815 5.60461 46.0815 5.25337C46.0815 4.90909 45.9552 4.60989 45.7063 4.36389C45.4576 4.11838 45.142 3.99397 44.7687 3.99397M45.8249 7.89927H43.6685V17.0665H45.8249V7.89927ZM52.2559 7.67833C51.2666 7.67833 50.3842 7.89047 49.6337 8.30866C48.8815 8.72782 48.2999 9.32622 47.9041 10.0871C47.5101 10.8462 47.3101 11.7329 47.3101 12.7217C47.3101 13.5879 47.504 14.3828 47.8874 15.0833C48.2709 15.785 48.8138 16.334 49.501 16.7148C50.1873 17.095 50.9804 17.2878 51.8586 17.2878C52.8834 17.2878 53.7583 17.0829 54.4599 16.6789L54.4882 16.6626V14.687L54.3976 14.7532C54.0798 14.9847 53.7247 15.1694 53.3426 15.3025C52.9614 15.4355 52.614 15.5028 52.3093 15.5028C51.4631 15.5028 50.7838 15.238 50.2908 14.716C49.7967 14.1934 49.5461 13.4594 49.5461 12.5359C49.5461 11.6066 49.8074 10.8538 50.3223 10.2983C50.8357 9.74451 51.5162 9.46359 52.3448 9.46359C53.0536 9.46359 53.7443 9.70359 54.3978 10.1776L54.4882 10.2433V8.16163L54.459 8.14519C54.2131 8.00753 53.8777 7.89387 53.4614 7.80768C53.0467 7.72168 52.6412 7.67834 52.2559 7.67834M58.2741 9.48679V7.89917H56.1177V17.0665H58.2741V12.377C58.2741 11.5797 58.4549 10.9246 58.8117 10.4298C59.1639 9.94086 59.6332 9.69312 60.2063 9.69312C60.4006 9.69312 60.6186 9.72514 60.8547 9.7885C61.0884 9.85147 61.2577 9.91987 61.3576 9.99183L61.4482 10.0575V7.8835L61.4133 7.8685C61.2125 7.78318 60.9284 7.74013 60.5689 7.74013C60.027 7.74013 59.542 7.91426 59.1267 8.25708C58.7621 8.55841 58.4986 8.97157 58.2971 9.48678L58.2741 9.48679ZM66.4459 7.67833C64.9339 7.67833 63.7331 8.12128 62.8775 8.99489C62.0219 9.8686 61.5879 11.0777 61.5879 12.5889C61.5879 14.0248 62.0116 15.1788 62.8468 16.0199C63.682 16.8613 64.8185 17.2875 66.2248 17.2875C67.6899 17.2875 68.867 16.8384 69.7227 15.9527C70.5782 15.0679 71.0118 13.8702 71.0118 12.3944C71.0118 10.9366 70.6049 9.77342 69.8021 8.93792C68.999 8.10203 67.8697 7.67833 66.4459 7.67833M66.3486 15.5028C65.5564 15.5028 64.9315 15.24 64.4914 14.7225C64.0483 14.2023 63.8243 13.461 63.8243 12.5186C63.8243 11.5465 64.0486 10.7857 64.4919 10.2563C64.932 9.73047 65.5507 9.46358 66.3311 9.46358C67.0878 9.46358 67.6903 9.71848 68.1221 10.2216C68.5559 10.7273 68.776 11.4821 68.776 12.4655C68.776 13.461 68.5689 14.2257 68.1606 14.7372C67.7552 15.2449 67.1459 15.5028 66.3486 15.5028M75.5536 7.67833C74.5253 7.67833 73.6747 7.94135 73.025 8.45995C72.3712 8.98164 72.0396 9.66585 72.0396 10.4938C72.0396 10.9242 72.1112 11.3065 72.2521 11.6307C72.3938 11.9561 72.6131 12.2425 72.9044 12.4829C73.1936 12.7213 73.6399 12.9711 74.2313 13.2252C74.7286 13.4298 75.0993 13.6029 75.3349 13.7393C75.5651 13.873 75.7285 14.0073 75.8208 14.1382C75.9105 14.2663 75.9559 14.4416 75.9559 14.6579C75.9559 15.2738 75.4947 15.5735 74.5456 15.5735C74.1936 15.5735 73.7921 15.4999 73.3522 15.355C72.9155 15.2123 72.5033 15.0033 72.1301 14.7353L72.0394 14.6703V16.7721L72.0727 16.7876C72.3816 16.9302 72.771 17.0504 73.23 17.145C73.6882 17.2397 74.1044 17.2879 74.466 17.2879C75.5818 17.2879 76.4804 17.0236 77.1361 16.5019C77.7959 15.9767 78.1303 15.2763 78.1303 14.4197C78.1303 13.8018 77.9503 13.2718 77.5955 12.8445C77.2431 12.4206 76.6314 12.0314 75.7783 11.6874C75.0987 11.4146 74.6633 11.1882 74.4836 11.0143C74.3104 10.8464 74.2225 10.6089 74.2225 10.3082C74.2225 10.0416 74.3311 9.82798 74.5539 9.65501C74.7784 9.48118 75.0909 9.39276 75.4829 9.39276C75.8466 9.39276 76.2187 9.45022 76.5889 9.56282C76.9587 9.67542 77.2835 9.82623 77.5547 10.0107L77.6439 10.0716V8.07793L77.6096 8.06322C77.3595 7.95594 77.0296 7.86414 76.6289 7.78965C76.2301 7.71565 75.8683 7.67831 75.5536 7.67831M83.9311 7.67833C82.4194 7.67833 81.2187 8.12128 80.3626 8.99489C79.5071 9.8686 79.0733 11.0777 79.0733 12.5889C79.0733 14.0243 79.4968 15.1788 80.332 16.0199C81.1672 16.8613 82.3038 17.2875 83.71 17.2875C85.1754 17.2875 86.3522 16.8384 87.2079 15.9527C88.0635 15.0679 88.497 13.8702 88.497 12.3944C88.497 10.9366 88.0902 9.77342 87.2876 8.93792C86.4846 8.10203 85.3551 7.67833 83.9311 7.67833M83.834 15.5028C83.0417 15.5028 82.417 15.24 81.9767 14.7225C81.5338 14.2023 81.3094 13.4608 81.3094 12.5186C81.3094 11.5465 81.5338 10.7857 81.9769 10.2563C82.4175 9.73046 83.0362 9.46356 83.8162 9.46356C84.5732 9.46356 85.1758 9.71846 85.6074 10.2216C86.0412 10.7273 86.2613 11.482 86.2613 12.4655C86.2613 13.461 86.0543 14.2256 85.6461 14.7372C85.2407 15.2449 84.631 15.5027 83.834 15.5027M99.9999 9.65782V7.89918H97.816V5.16516L97.7426 5.18779L95.6913 5.81541L95.6508 5.82769V7.89927H92.4132V6.74522C92.4132 6.20786 92.5333 5.79663 92.7701 5.52239C93.0053 5.25143 93.3417 5.11368 93.7707 5.11368C94.0791 5.11368 94.3984 5.18633 94.7197 5.32959L94.8003 5.36557V3.51348L94.7624 3.49955C94.4626 3.39179 94.0549 3.33752 93.5494 3.33752C92.9125 3.33752 92.3337 3.47614 91.8289 3.75087C91.3238 4.02598 90.9266 4.41873 90.6483 4.91808C90.3709 5.41684 90.2302 5.9929 90.2302 6.63039V7.89917H88.7095V9.65781H90.2302V17.0667H92.4132V9.65781H95.6508V14.366C95.6508 16.3051 96.5655 17.2877 98.3693 17.2877C98.6657 17.2877 98.9776 17.253 99.2962 17.185C99.6205 17.1151 99.8413 17.0454 99.9713 16.9709L100 16.9539V15.179L99.9112 15.2377C99.7927 15.3166 99.6452 15.3812 99.4722 15.4291C99.2985 15.478 99.1534 15.5025 99.041 15.5025C98.6185 15.5025 98.3058 15.3886 98.1119 15.1639C97.9157 14.9371 97.8161 14.5406 97.8161 13.986V9.65783L99.9999 9.65782Z" fill="white"/>
<path fill-rule="evenodd" clip-rule="evenodd" d="M10.1488 10.1488H0V0H10.1488V10.1488Z" fill="white"/>
<path fill-rule="evenodd" clip-rule="evenodd" d="M21.3499 10.1488H11.2015V0H21.3499V10.1488Z" fill="white"/>
<path fill-rule="evenodd" clip-rule="evenodd" d="M10.1483 21.3479H0V11.2093H10.1483V21.3479Z" fill="white"/>
<path fill-rule="evenodd" clip-rule="evenodd" d="M21.3499 21.3479H11.2015V11.2093H21.3499V21.3479Z" fill="white"/>
</svg>
