<svg width="28" height="28" viewBox="0 0 28 28" fill="none" xmlns="http://www.w3.org/2000/svg">
<path fill-rule="evenodd" clip-rule="evenodd" d="M20.4821 22.7523C20.0106 20.277 19.3917 18.0079 18.6845 15.9157C18.655 15.7978 18.714 15.6504 18.8613 15.6504C20.7178 15.4442 22.6922 15.5915 24.8139 16.063C24.9318 16.0925 24.9907 16.2103 24.9907 16.3282C24.4308 18.9804 22.9279 21.3084 20.8357 22.8996C20.6883 22.9881 20.4821 22.8996 20.4821 22.7523H20.4821ZM7.30974 22.7228C9.90295 19.3929 12.7614 17.2417 16.0029 16.2398C16.1208 16.2103 16.2386 16.2693 16.2681 16.3577C17.0932 18.6857 17.8005 21.3084 18.2425 24.1668C18.272 24.2552 18.213 24.3731 18.1246 24.4025C16.8575 24.9035 15.443 25.1982 13.9991 25.1982C11.5237 25.1982 9.22519 24.3731 7.36868 23.0175C7.25081 22.9291 7.25081 22.8112 7.30974 22.7228ZM3.00737 13.8234C6.89719 13.7055 10.787 13.3225 14.3527 12.2027C14.4411 12.1732 14.559 12.2027 14.5884 12.3205C14.7947 12.7625 15.001 13.234 15.2367 13.7055C15.2957 13.8234 15.2367 13.9413 15.1189 14.0002C11.5827 15.1495 8.42955 17.4775 5.60059 21.0431C5.51219 21.1315 5.36484 21.161 5.27644 21.0726C3.68515 19.3635 2.86004 16.7997 2.8011 14.0886C2.8011 13.9118 2.8895 13.8234 3.00738 13.8234H3.00737ZM9.34305 3.95153C10.286 5.10079 11.7595 7.0457 13.2623 9.72732C13.3213 9.8452 13.2623 9.99254 13.1445 10.022C10.2566 10.8471 7.01505 11.2302 3.39045 11.3775C3.24311 11.3775 3.1547 11.2597 3.18417 11.1123C4.00928 7.95922 6.18994 5.33654 9.07783 3.92206C9.16624 3.86312 9.28411 3.89259 9.34305 3.95153ZM20.9536 5.51335C19.4507 7.0457 17.7415 8.19496 15.8261 9.04955C15.7377 9.10849 15.6198 9.04955 15.5609 8.96115C14.2348 6.51528 12.9087 4.59984 11.9068 3.27377C11.8184 3.1559 11.8773 2.97909 12.0247 2.94962C12.673 2.83175 13.3213 2.77281 13.9991 2.77281C16.6217 2.77281 19.0381 3.68633 20.9536 5.18921C21.042 5.27761 21.042 5.42496 20.9536 5.51336V5.51335ZM22.9574 7.25198C24.254 8.99061 25.0497 11.0829 25.197 13.3814C25.197 13.5287 25.0791 13.6171 24.9318 13.5877C22.427 13.0867 20.0695 12.9983 17.8594 13.3225C17.771 13.3225 17.6826 13.293 17.6531 13.2046C17.3879 12.5858 17.1522 12.0259 16.887 11.466C16.828 11.3481 16.887 11.2302 16.9754 11.2007C19.0381 10.2577 20.9831 8.99062 22.6627 7.28146C22.7511 7.16359 22.8985 7.16359 22.9574 7.25199L22.9574 7.25198ZM15.2367 0.415338C6.74984 -0.350842 -0.352018 6.72156 0.414152 15.2379C1.00352 21.7504 6.24887 26.9958 12.7614 27.5851C21.2482 28.3513 28.3501 21.2494 27.5839 12.7626C26.9946 6.22059 21.7492 0.975238 15.2367 0.415338Z" fill="#D2D2D2"/>
</svg>
