<svg width="72" height="30" viewBox="0 0 72 30" fill="none" xmlns="http://www.w3.org/2000/svg">
<path fill-rule="evenodd" clip-rule="evenodd" d="M61.8159 13.4219C61.8159 11.1882 63.1799 10.2591 64.4252 10.2591C65.631 10.2591 66.9159 11.1882 66.9159 13.4219H61.8159ZM71.5809 15.2997C71.5809 10.2393 69.1297 6.24636 64.445 6.24636C59.7403 6.24636 56.8938 10.2395 56.8938 15.2602C56.8938 21.21 60.2544 24.2146 65.0774 24.2146C67.4297 24.2146 69.2088 23.6809 70.5529 22.9298V18.9763C69.2089 19.6485 67.667 20.0636 65.71 20.0636C63.7926 20.0636 62.0926 19.3915 61.8753 17.059H71.5414C71.5414 16.8019 71.5809 15.7741 71.5809 15.2997ZM48.0779 19.8659C46.9116 19.8659 46.2196 19.4508 45.7454 18.9369L45.7255 11.6032C46.2395 11.03 46.9511 10.6347 48.0779 10.6347C49.8766 10.6347 51.122 12.6509 51.122 15.2404C51.122 17.8892 49.8964 19.8659 48.0779 19.8659H48.0779ZM49.2638 6.24636C47.3266 6.24636 46.0813 7.15561 45.3896 7.78828L45.1324 6.56269H40.7838V29.6109L45.7255 28.5634L45.7454 22.9693C46.457 23.4833 47.5045 24.2146 49.2441 24.2146C52.7824 24.2146 56.0044 21.3682 56.0044 15.1021C55.9847 9.36953 52.7231 6.24635 49.2638 6.24635L49.2638 6.24636ZM33.9839 5.08012L38.9454 4.0127V0L33.9839 1.04769V5.07999L33.9839 5.08012ZM33.9839 6.58243H38.9454V23.8785H33.9839V6.58243H33.9839ZM28.6666 8.04513L28.3503 6.58243H24.0806V23.8786H29.0224V12.1568C30.1885 10.6347 32.1654 10.9115 32.7782 11.1288V6.58243C32.1456 6.34518 29.8329 5.91029 28.6666 8.04513ZM18.783 2.29301L13.9598 3.32082L13.9401 19.1542C13.9401 22.0799 16.1343 24.2344 19.0598 24.2344C20.6807 24.2344 21.8667 23.9379 22.5189 23.5821V19.5694C21.8866 19.8264 18.7632 20.7356 18.7632 17.8101V10.7928H22.5189V6.58243H18.7632L18.783 2.29301ZM5.42047 11.6032C5.42047 10.8324 6.053 10.5358 7.10082 10.5358C8.60299 10.5358 10.5006 10.9906 12.0029 11.801V7.15562C10.3623 6.50335 8.74143 6.24637 7.10082 6.24637C3.08798 6.24637 0.419434 8.34174 0.419434 11.8406C0.419434 17.2961 7.93085 16.4265 7.93085 18.7788C7.93085 19.688 7.14029 19.9846 6.03326 19.9846C4.39266 19.9846 2.29729 19.3124 0.636814 18.4031V23.1077C2.47519 23.8984 4.33331 24.2344 6.03326 24.2344C10.1448 24.2344 12.9715 22.1985 12.9715 18.6601C12.9518 12.7696 5.42047 13.8171 5.42047 11.6032V11.6032Z" fill="white"/>
</svg>
